# xmcd CD database file
#
# Track frame offsets:
#	150
#	13092
#	35139
#	61286
#	86910
#	103291
#	129851
#	145687
#	164086
#	184366
#	206693
#	243145
#	278372
#	288513
#	306593
#
# Disc length: 4346 seconds
#
# Revision: 2
# Processed by: cddbd v1.5.2PL0 Copyright (c) Steve Scherf et al.
# Submitted via: Feurio! 1.68 - http://www.feurio.com
#
DISCID=e310f80f
DTITLE=Acid Drops  - Volume 5 CD 2
DYEAR=2001
DGENRE=Acid
TTITLE0=Saccoman - Metamorph (Part One Mix)
TTITLE1=K.A.M. - Xitar (Xitar Mix)
TTITLE2=Rob Acid - Asteroids
TTITLE3=Timo Maas - Killin`Me
TTITLE4=Ignition Technican - Worq It
TTITLE5=Stereo Jack and Doorkeeper - Recharged
TTITLE6=Jakyro - Seven (File 3 Mix)
TTITLE7=Vanguard - The Wave
TTITLE8=Brain 25 - Confusion (Non Vocal Mix)
TTITLE9=F-Starr - Energy
TTITLE10=Organic Noise - White Noise
TTITLE11=Asem Shama - Conception
TTITLE12=Jimmy The Sound - Electric Café
TTITLE13=Glenn Wilson - Humor
TTITLE14=James Ruskin - Coda
EXTD=
EXTT0=
EXTT1=
EXTT2=
EXTT3=
EXTT4=
EXTT5=
EXTT6=
EXTT7=
EXTT8=
EXTT9=
EXTT10=
EXTT11=
EXTT12=
EXTT13=
EXTT14=
PLAYORDER=
